<?xml version="1.0" encoding="UTF-8"?><svg id="Layer_2" xmlns="http://www.w3.org/2000/svg" viewBox="0 0 32 32"><defs><style>.cls-1{fill:#e5b78b;}.cls-2{fill:#005c5f;}</style></defs><g id="Artwork"><circle class="cls-2" cx="16" cy="16" r="16"/><path class="cls-1" d="M22.78,15.39c.34,0,.55-.37.38-.66l-2.5-4.32c-.08-.15-.23-.22-.38-.22s-.3.07-.38.22l-1.95,3.38.93,1.61h3.9Z"/><path class="cls-1" d="M13.13,22.33c-.17.29.04.66.38.66h4.99c.34,0,.55-.37.38-.66l-1.76-3.04h-2.24l-1.76,3.04Z"/><path class="cls-1" d="M13.51,7.81h4.99c.34,0,.55-.37.38-.66l-2.5-4.32c-.08-.15-.23-.22-.38-.22s-.3.07-.38.22l-2.5,4.32c-.17.29.04.66.38.66Z"/><path class="cls-1" d="M12.1,10.41c-.08-.15-.23-.22-.38-.22s-.3.07-.38.22l-2.5,4.32c-.17.29.04.66.38.66h3.92l.92-1.59-1.96-3.39Z"/><path class="cls-1" d="M12.2,18.53c-.27-.47-.27-1.05,0-1.51l.24-.41h-3.21c-.34,0-.55.37-.38.66l2.5,4.32c.08.15.23.22.38.22s.3-.07.38-.22l1.33-2.31c-.51-.03-.98-.31-1.23-.75Z"/><path class="cls-1" d="M18.49,24.19h-4.99c-.34,0-.55.37-.38.66l2.5,4.32c.08.15.23.22.38.22s.3-.07.38-.22l2.5-4.32c.17-.29-.04-.66-.38-.66Z"/><path class="cls-1" d="M16.01,11.94c.48,0,.93.23,1.22.61l1.66-2.88c.17-.29-.04-.66-.38-.66h-4.99c-.34,0-.55.37-.38.66l1.66,2.88c.28-.38.73-.61,1.22-.61Z"/><path class="cls-1" d="M22.78,16.61h-3.2l.24.41c.27.47.27,1.05,0,1.51-.26.45-.73.73-1.25.75l1.33,2.31c.08.15.23.22.38.22s.3-.07.38-.22l2.5-4.32c.17-.29-.04-.66-.38-.66Z"/><path class="cls-1" d="M18.51,18.4h-4.99c-.23,0-.43-.12-.54-.31-.11-.2-.11-.43,0-.62l2.5-4.32c.11-.2.31-.31.54-.31s.43.12.54.31l2.5,4.32c.11.2.11.43,0,.62-.11.2-.32.31-.54.31ZM16.01,13.19c-.09,0-.17.05-.22.13l-2.5,4.32c-.05.08-.05.18,0,.26.05.08.13.13.22.13h4.99c.09,0,.18-.05.22-.13.05-.08.05-.18,0-.26l-2.5-4.32c-.05-.08-.13-.13-.22-.13Z"/></g></svg>
